<svg width="88" height="88" viewBox="0 0 88 88" fill="none" xmlns="http://www.w3.org/2000/svg">
<rect width="88" height="88" rx="44" fill="#272A40"/>
<path d="M43.0652 54.769C44.1406 54.769 45.1719 54.3367 45.9323 53.5674C46.6927 52.798 47.1199 51.7546 47.1199 50.6665V30.2856C47.1358 29.737 47.0428 29.1907 46.8463 28.6791C46.6498 28.1674 46.3538 27.7009 45.9759 27.3071C45.598 26.9134 45.1458 26.6003 44.6461 26.3865C44.1465 26.1728 43.6095 26.0626 43.067 26.0626C42.5245 26.0626 41.9875 26.1728 41.4878 26.3865C40.9882 26.6003 40.536 26.9134 40.1581 27.3071C39.7802 27.7009 39.4842 28.1674 39.2877 28.6791C39.0912 29.1907 38.9981 29.737 39.0141 30.2856V50.6665C39.0141 51.754 39.4408 52.7969 40.2004 53.5661C40.9601 54.3354 41.9905 54.768 43.0652 54.769V54.769Z" fill="#00FF72"/>
<path d="M58.6837 17.8226C57.6084 17.8226 56.5771 18.2548 55.8167 19.0242C55.0563 19.7936 54.6291 20.837 54.6291 21.9251V50.3796C54.6291 53.4829 53.4107 56.4591 51.2419 58.6534C49.0731 60.8478 46.1316 62.0805 43.0644 62.0805C39.9973 62.0805 37.0558 60.8478 34.887 58.6534C32.7182 56.4591 31.4997 53.4829 31.4997 50.3796V39.6041C31.5157 39.0555 31.4227 38.5091 31.2262 37.9975C31.0297 37.4859 30.7337 37.0194 30.3558 36.6256C29.9778 36.2318 29.5257 35.9188 29.026 35.705C28.5263 35.4912 27.9894 35.3811 27.4469 35.3811C26.9044 35.3811 26.3674 35.4912 25.8677 35.705C25.3681 35.9188 24.9159 36.2318 24.538 36.6256C24.16 37.0194 23.8641 37.4859 23.6676 37.9975C23.471 38.5091 23.378 39.0555 23.394 39.6041V50.3796C23.463 55.6125 25.566 60.6073 29.2477 64.2831C32.9295 67.9588 37.8938 70.0197 43.0662 70.0197C48.2385 70.0197 53.2029 67.9588 56.8846 64.2831C60.5664 60.6073 62.6693 55.6125 62.7384 50.3796V21.9251C62.7384 20.837 62.3112 19.7936 61.5508 19.0242C60.7904 18.2548 59.7591 17.8226 58.6837 17.8226V17.8226Z" fill="#00FF72"/>
</svg>
