<svg width="187" height="26" viewBox="0 0 187 26" fill="none" xmlns="http://www.w3.org/2000/svg">
<g clip-path="url(#clip0_2658_31)">
<path d="M27.5749 0.136719H23.9092V22.588H36.6523V19.0976H27.5749V0.136719Z" fill="white"/>
<path d="M45.1263 6.32579C44.004 6.28446 42.8855 6.47738 41.8426 6.89214C40.7998 7.3069 39.8558 7.93431 39.0713 8.73401C38.2968 9.51305 37.6886 10.4399 37.2833 11.4588C36.878 12.4777 36.6838 13.5676 36.7126 14.6631C36.6795 15.7709 36.8743 16.8737 37.2852 17.9038C37.6961 18.9339 38.3143 19.8695 39.1019 20.6532C40.6948 22.2078 42.7982 23.0004 45.3764 23.0004C48.4703 23.0004 50.7933 21.8573 52.3555 19.5456L49.522 17.8944C49.0618 18.537 48.4465 19.054 47.7327 19.3976C47.0189 19.7412 46.2296 19.9004 45.4377 19.8606C42.7931 19.8606 40.8428 18.5295 40.3323 16.1213H52.9937C53.0712 15.6491 53.1138 15.1719 53.1213 14.6936C53.1648 12.5008 52.3544 10.3762 50.8596 8.76449C50.1367 7.97124 49.2502 7.34267 48.2607 6.92178C47.2712 6.50089 46.202 6.2976 45.1263 6.32579ZM40.2812 13.332C40.4554 12.2046 41.0436 11.1816 41.932 10.4608C42.8204 9.74006 43.9458 9.37279 45.0905 9.43005C47.3522 9.43005 49.1749 10.7663 49.6497 13.332H40.2812Z" fill="white"/>
<path d="M63.5065 6.32422C61.2448 6.32422 59.6213 7.14728 58.5696 8.76292V6.73067H55.1387V22.5822H58.5798V14.0925C58.5798 11.0137 60.2033 9.51993 62.6233 9.51993C64.8237 9.51993 66.197 10.8206 66.197 13.1983V22.5873H69.6381V12.8528C69.6228 8.79848 67.1671 6.32422 63.5065 6.32422Z" fill="white"/>
<path d="M84.9136 8.98567C83.6066 7.21253 81.7584 6.32342 79.3385 6.32342C78.2845 6.30684 77.239 6.51291 76.2709 6.92803C75.3028 7.34315 74.4343 7.95788 73.7225 8.73164C72.9569 9.5156 72.3566 10.4439 71.9568 11.4622C71.5569 12.4804 71.3658 13.5679 71.3944 14.6607C71.3695 15.753 71.5624 16.8395 71.962 17.8572C72.3616 18.8749 72.9599 19.8036 73.7225 20.5898C74.4343 21.3635 75.3028 21.9783 76.2709 22.3934C77.239 22.8085 78.2845 23.0146 79.3385 22.998C81.7584 22.998 83.6066 22.1089 84.9136 20.3053V22.5865H88.3546V0.0234375H84.9136V8.98567ZM83.4789 18.2882C82.5069 19.2048 81.2187 19.7157 79.8796 19.7157C78.5405 19.7157 77.2524 19.2048 76.2803 18.2882C75.8081 17.8077 75.4377 17.2376 75.1913 16.6118C74.9448 15.986 74.8273 15.3173 74.8457 14.6454C74.8247 13.9778 74.9411 13.3129 75.1878 12.6917C75.4345 12.0705 75.8063 11.506 76.2803 11.0331C77.2427 10.0978 78.5345 9.57422 79.8796 9.57422C81.2248 9.57422 82.5166 10.0978 83.4789 11.0331C83.953 11.506 84.3248 12.0705 84.5715 12.6917C84.8182 13.3129 84.9346 13.9778 84.9136 14.6454C84.932 15.3173 84.8145 15.986 84.568 16.6118C84.3216 17.2376 83.9512 17.8077 83.4789 18.2882Z" fill="white"/>
<path d="M115.142 6.32651C114.037 6.31433 112.941 6.52143 111.917 6.93573C110.893 7.35002 109.963 7.96319 109.18 8.73941C108.397 9.51564 107.778 10.4394 107.358 11.4566C106.938 12.4738 106.725 13.5641 106.734 14.6638C106.725 15.7636 106.938 16.8539 107.358 17.8711C107.778 18.8883 108.397 19.812 109.18 20.5882C109.963 21.3645 110.893 21.9776 111.917 22.3919C112.941 22.8062 114.037 23.0133 115.142 23.0012C116.248 23.0275 117.348 22.8273 118.373 22.413C119.398 21.9987 120.326 21.3792 121.1 20.5929C121.894 19.8238 122.521 18.9008 122.943 17.881C123.364 16.8612 123.571 15.7663 123.551 14.6638C123.571 13.5613 123.365 12.4663 122.943 11.4465C122.522 10.4267 121.894 9.50372 121.1 8.73473C120.326 7.94844 119.398 7.32893 118.373 6.91466C117.348 6.50039 116.248 6.30019 115.142 6.32651ZM118.68 18.2457C117.733 19.161 116.465 19.673 115.145 19.673C113.825 19.673 112.556 19.161 111.609 18.2457C111.14 17.7807 110.771 17.2256 110.525 16.6142C110.278 16.0028 110.159 15.3479 110.175 14.6892C110.159 14.0306 110.278 13.3757 110.525 12.7643C110.771 12.1529 111.14 11.5978 111.609 11.1328C112.556 10.2175 113.825 9.70552 115.145 9.70552C116.465 9.70552 117.733 10.2175 118.68 11.1328C119.151 11.6017 119.52 12.1612 119.766 12.7771C120.012 13.393 120.129 14.0523 120.11 14.7147C120.122 15.3686 120.002 16.0182 119.756 16.6249C119.51 17.2315 119.145 17.7827 118.68 18.2457Z" fill="white"/>
<path d="M143.365 6.73828L140.246 17.6769L136.932 6.73828H133.649L130.305 17.6769L127.217 6.73828H123.587L128.585 22.5899H131.965L135.309 11.9053L138.622 22.5899H141.997L147 6.73828H143.365Z" fill="white"/>
<path d="M8.55141 15.9544C9.01456 15.9558 9.45951 15.7751 9.7894 15.4515C10.1193 15.128 10.3074 14.6879 10.3128 14.227V5.48328C10.3128 5.01841 10.1272 4.57257 9.79688 4.24386C9.46656 3.91514 9.01855 3.73047 8.55141 3.73047C8.08426 3.73047 7.63625 3.91514 7.30593 4.24386C6.97561 4.57257 6.79004 5.01841 6.79004 5.48328V14.227C6.79675 14.6875 6.98528 15.1268 7.31487 15.4501C7.64447 15.7733 8.08865 15.9545 8.55141 15.9544Z" fill="#04FE72"/>
<path d="M15.3418 0.156258C14.8746 0.156258 14.4266 0.34093 14.0963 0.669646C13.766 0.998363 13.5804 1.4442 13.5804 1.90907V14.1026C13.5804 15.4299 13.0506 16.7027 12.1075 17.6413C11.1644 18.5798 9.88529 19.107 8.55156 19.107C7.21783 19.107 5.93873 18.5798 4.99564 17.6413C4.05255 16.7027 3.52273 15.4299 3.52273 14.1026V9.46905C3.52273 9.00417 3.33716 8.55834 3.00684 8.22962C2.67652 7.9009 2.22851 7.71623 1.76137 7.71623C1.29422 7.71623 0.846212 7.9009 0.515892 8.22962C0.185572 8.55834 0 9.00417 0 9.46905V14.0772C0 16.3342 0.900965 18.4988 2.50469 20.0947C4.10842 21.6907 6.28354 22.5872 8.55156 22.5872C10.8196 22.5872 12.9947 21.6907 14.5984 20.0947C16.2022 18.4988 17.1031 16.3342 17.1031 14.0772V1.88367C17.0977 1.42279 16.9096 0.982688 16.5797 0.659163C16.2499 0.335638 15.8049 0.154887 15.3418 0.156258Z" fill="#04FE72"/>
<path d="M104.661 0.0254031V0H98.9066C94.5874 0.208306 92.4942 2.35233 92.4942 6.41175V6.72675H90.0742V10.0241H92.4942V22.5885H95.9352V10.0342H98.8964V6.73691H95.9352V6.42191C95.9352 4.29313 97.0125 3.16015 99.1925 3.01281C99.703 3.01281 101.235 3.01281 101.235 3.01281V22.5732H104.661V3.94765V0.0254031Z" fill="white"/>
</g>
<path d="M160.12 23L159.28 20.36H153.04L152.2 23H148L153.712 6.2H158.608L164.32 23H160.12ZM154.192 16.76H158.128L156.16 10.592L154.192 16.76ZM172.113 6.2C175.425 6.2 177.993 8.768 177.993 11.96C177.993 15.152 175.425 17.72 172.113 17.72H169.593V23H165.753V6.2H172.113ZM172.113 14.12C173.289 14.12 174.153 13.184 174.153 11.96C174.153 10.736 173.289 9.8 172.113 9.8H169.593V14.12H172.113ZM179.909 6.2H183.749V23H179.909V6.2Z" fill="#04FE72"/>
<defs>
<clipPath id="clip0_2658_31">
<rect width="147" height="23" fill="white"/>
</clipPath>
</defs>
</svg>
